<mxfile host="app.diagrams.net" modified="2024-07-09T10:56:59.032Z" agent="Mozilla/5.0 (Macintosh; Intel Mac OS X 10_15_7) AppleWebKit/605.1.15 (KHTML, like Gecko) Version/17.5 Safari/605.1.15" etag="mkT80yns46DTWzlxVVZi" version="24.6.4" type="device">
  <diagram name="Page-1" id="JzOKHiW9dGkAq-V41V1e">
    <mxGraphModel dx="1818" dy="1158" grid="1" gridSize="10" guides="1" tooltips="1" connect="1" arrows="1" fold="1" page="1" pageScale="1" pageWidth="827" pageHeight="1169" math="0" shadow="0">
      <root>
        <mxCell id="0" />
        <mxCell id="1" parent="0" />
        <mxCell id="K7yHzfW4WV1s8q2YCmYE-11" style="edgeStyle=orthogonalEdgeStyle;rounded=0;orthogonalLoop=1;jettySize=auto;html=1;endArrow=ERmany;endFill=0;" edge="1" parent="1" source="K7yHzfW4WV1s8q2YCmYE-2" target="K7yHzfW4WV1s8q2YCmYE-5">
          <mxGeometry relative="1" as="geometry">
            <Array as="points">
              <mxPoint x="200" y="170" />
              <mxPoint x="200" y="210" />
            </Array>
          </mxGeometry>
        </mxCell>
        <mxCell id="K7yHzfW4WV1s8q2YCmYE-2" value="Practitioner" style="shape=umlActor;verticalLabelPosition=bottom;verticalAlign=top;html=1;outlineConnect=0;" vertex="1" parent="1">
          <mxGeometry x="150" y="140" width="30" height="60" as="geometry" />
        </mxCell>
        <mxCell id="K7yHzfW4WV1s8q2YCmYE-10" style="edgeStyle=orthogonalEdgeStyle;rounded=0;orthogonalLoop=1;jettySize=auto;html=1;entryX=0.5;entryY=0;entryDx=0;entryDy=0;" edge="1" parent="1" source="K7yHzfW4WV1s8q2YCmYE-3" target="K7yHzfW4WV1s8q2YCmYE-5">
          <mxGeometry relative="1" as="geometry" />
        </mxCell>
        <mxCell id="K7yHzfW4WV1s8q2YCmYE-3" value="&lt;div style=&quot;text-align: start;&quot;&gt;&lt;div&gt;Employee&amp;nbsp;&lt;/div&gt;&lt;div&gt;Credential&lt;/div&gt;&lt;div&gt;&lt;/div&gt;&lt;div&gt;&lt;/div&gt;&lt;/div&gt;&lt;div style=&quot;text-align: start;&quot;&gt;&lt;div&gt;&lt;/div&gt;&lt;/div&gt;" style="shape=note;whiteSpace=wrap;html=1;backgroundOutline=1;darkOpacity=0.05;" vertex="1" parent="1">
          <mxGeometry x="260" y="50" width="140" height="50" as="geometry" />
        </mxCell>
        <mxCell id="K7yHzfW4WV1s8q2YCmYE-5" value="&lt;div style=&quot;text-align: start;&quot;&gt;PractitionerRole&lt;/div&gt;&lt;div style=&quot;text-align: start;&quot;&gt;&lt;div&gt;&lt;/div&gt;&lt;/div&gt;" style="rounded=0;whiteSpace=wrap;html=1;" vertex="1" parent="1">
          <mxGeometry x="400" y="190" width="120" height="40" as="geometry" />
        </mxCell>
        <mxCell id="K7yHzfW4WV1s8q2YCmYE-13" style="edgeStyle=orthogonalEdgeStyle;rounded=0;orthogonalLoop=1;jettySize=auto;html=1;entryX=0.5;entryY=1;entryDx=0;entryDy=0;endArrow=ERmany;endFill=0;" edge="1" parent="1" source="K7yHzfW4WV1s8q2YCmYE-6" target="K7yHzfW4WV1s8q2YCmYE-5">
          <mxGeometry relative="1" as="geometry" />
        </mxCell>
        <mxCell id="K7yHzfW4WV1s8q2YCmYE-6" value="&lt;div style=&quot;text-align: start;&quot;&gt;Organization&lt;br&gt;&lt;/div&gt;&lt;div style=&quot;text-align: start;&quot;&gt;&lt;div&gt;&lt;/div&gt;&lt;/div&gt;" style="rounded=0;whiteSpace=wrap;html=1;" vertex="1" parent="1">
          <mxGeometry x="400" y="260" width="120" height="40" as="geometry" />
        </mxCell>
        <mxCell id="K7yHzfW4WV1s8q2YCmYE-17" style="edgeStyle=orthogonalEdgeStyle;rounded=0;orthogonalLoop=1;jettySize=auto;html=1;exitX=0;exitY=0;exitDx=140;exitDy=30;exitPerimeter=0;entryX=0.514;entryY=1.14;entryDx=0;entryDy=0;entryPerimeter=0;" edge="1" parent="1" source="K7yHzfW4WV1s8q2YCmYE-7" target="K7yHzfW4WV1s8q2YCmYE-14">
          <mxGeometry relative="1" as="geometry">
            <mxPoint x="550" y="110" as="targetPoint" />
            <mxPoint x="570" y="355" as="sourcePoint" />
          </mxGeometry>
        </mxCell>
        <mxCell id="K7yHzfW4WV1s8q2YCmYE-18" value="issuer" style="edgeLabel;html=1;align=center;verticalAlign=middle;resizable=0;points=[];" vertex="1" connectable="0" parent="K7yHzfW4WV1s8q2YCmYE-17">
          <mxGeometry x="0.217" y="-2" relative="1" as="geometry">
            <mxPoint as="offset" />
          </mxGeometry>
        </mxCell>
        <mxCell id="K7yHzfW4WV1s8q2YCmYE-7" value="&lt;div style=&quot;text-align: start;&quot;&gt;&lt;div&gt;Membership&lt;br&gt;&lt;/div&gt;&lt;div&gt;Credential&lt;/div&gt;&lt;div&gt;&lt;/div&gt;&lt;div&gt;&lt;/div&gt;&lt;/div&gt;&lt;div style=&quot;text-align: start;&quot;&gt;&lt;div&gt;&lt;/div&gt;&lt;/div&gt;" style="shape=note;whiteSpace=wrap;html=1;backgroundOutline=1;darkOpacity=0.05;" vertex="1" parent="1">
          <mxGeometry x="410" y="360" width="140" height="50" as="geometry" />
        </mxCell>
        <mxCell id="K7yHzfW4WV1s8q2YCmYE-8" style="edgeStyle=orthogonalEdgeStyle;rounded=0;orthogonalLoop=1;jettySize=auto;html=1;entryX=0;entryY=0;entryDx=55;entryDy=0;entryPerimeter=0;dashed=1;dashPattern=12 12;" edge="1" parent="1" source="K7yHzfW4WV1s8q2YCmYE-6" target="K7yHzfW4WV1s8q2YCmYE-7">
          <mxGeometry relative="1" as="geometry">
            <mxPoint x="640" y="330" as="targetPoint" />
          </mxGeometry>
        </mxCell>
        <mxCell id="K7yHzfW4WV1s8q2YCmYE-12" style="edgeStyle=orthogonalEdgeStyle;rounded=0;orthogonalLoop=1;jettySize=auto;html=1;entryX=0;entryY=0.5;entryDx=0;entryDy=0;entryPerimeter=0;dashed=1;dashPattern=8 8;" edge="1" parent="1" source="K7yHzfW4WV1s8q2YCmYE-2" target="K7yHzfW4WV1s8q2YCmYE-3">
          <mxGeometry relative="1" as="geometry" />
        </mxCell>
        <mxCell id="K7yHzfW4WV1s8q2YCmYE-14" value="&lt;div style=&quot;text-align: start;&quot;&gt;&lt;div&gt;Role credential&lt;/div&gt;&lt;div&gt;&lt;/div&gt;&lt;div&gt;&lt;/div&gt;&lt;/div&gt;&lt;div style=&quot;text-align: start;&quot;&gt;&lt;div&gt;&lt;/div&gt;&lt;/div&gt;" style="shape=note;whiteSpace=wrap;html=1;backgroundOutline=1;darkOpacity=0.05;" vertex="1" parent="1">
          <mxGeometry x="500" y="50" width="140" height="50" as="geometry" />
        </mxCell>
        <mxCell id="K7yHzfW4WV1s8q2YCmYE-19" style="edgeStyle=orthogonalEdgeStyle;rounded=0;orthogonalLoop=1;jettySize=auto;html=1;entryX=0;entryY=0.5;entryDx=0;entryDy=0;entryPerimeter=0;" edge="1" parent="1" source="K7yHzfW4WV1s8q2YCmYE-3" target="K7yHzfW4WV1s8q2YCmYE-14">
          <mxGeometry relative="1" as="geometry" />
        </mxCell>
        <mxCell id="K7yHzfW4WV1s8q2YCmYE-20" value="sub" style="edgeLabel;html=1;align=center;verticalAlign=middle;resizable=0;points=[];" vertex="1" connectable="0" parent="K7yHzfW4WV1s8q2YCmYE-19">
          <mxGeometry x="-0.025" relative="1" as="geometry">
            <mxPoint as="offset" />
          </mxGeometry>
        </mxCell>
        <mxCell id="K7yHzfW4WV1s8q2YCmYE-21" value="Domain&lt;div&gt;Controller&lt;/div&gt;" style="rounded=1;whiteSpace=wrap;html=1;" vertex="1" parent="1">
          <mxGeometry x="250" y="360" width="90" height="50" as="geometry" />
        </mxCell>
        <mxCell id="K7yHzfW4WV1s8q2YCmYE-22" style="edgeStyle=orthogonalEdgeStyle;rounded=0;orthogonalLoop=1;jettySize=auto;html=1;entryX=0;entryY=0.5;entryDx=0;entryDy=0;entryPerimeter=0;exitX=1;exitY=0.5;exitDx=0;exitDy=0;" edge="1" parent="1" source="K7yHzfW4WV1s8q2YCmYE-21" target="K7yHzfW4WV1s8q2YCmYE-7">
          <mxGeometry relative="1" as="geometry">
            <mxPoint x="400" y="355" as="sourcePoint" />
            <mxPoint x="570" y="355" as="targetPoint" />
          </mxGeometry>
        </mxCell>
        <mxCell id="K7yHzfW4WV1s8q2YCmYE-23" value="issue" style="edgeLabel;html=1;align=center;verticalAlign=middle;resizable=0;points=[];" vertex="1" connectable="0" parent="K7yHzfW4WV1s8q2YCmYE-22">
          <mxGeometry x="-0.0353" relative="1" as="geometry">
            <mxPoint as="offset" />
          </mxGeometry>
        </mxCell>
        <mxCell id="K7yHzfW4WV1s8q2YCmYE-25" style="edgeStyle=orthogonalEdgeStyle;rounded=0;orthogonalLoop=1;jettySize=auto;html=1;" edge="1" parent="1" source="K7yHzfW4WV1s8q2YCmYE-24" target="K7yHzfW4WV1s8q2YCmYE-3">
          <mxGeometry relative="1" as="geometry" />
        </mxCell>
        <mxCell id="K7yHzfW4WV1s8q2YCmYE-27" value="id_token" style="edgeLabel;html=1;align=center;verticalAlign=middle;resizable=0;points=[];" vertex="1" connectable="0" parent="K7yHzfW4WV1s8q2YCmYE-25">
          <mxGeometry x="-0.1143" relative="1" as="geometry">
            <mxPoint as="offset" />
          </mxGeometry>
        </mxCell>
        <mxCell id="K7yHzfW4WV1s8q2YCmYE-24" value="&lt;div&gt;IdP&lt;/div&gt;" style="rounded=1;whiteSpace=wrap;html=1;" vertex="1" parent="1">
          <mxGeometry x="60" y="60" width="60" height="30" as="geometry" />
        </mxCell>
      </root>
    </mxGraphModel>
  </diagram>
</mxfile>
